{"title":"Sand Serpents 2009 DVDRip Xvid BigPerm LKRG","uid":6398055,"size":1151804902,"categoryP":"video","categoryS":"movies","magnet":"?xt=urn:btih:b74e5bdb1420cdbd20a335f833071bbd60d4596e&amp;dn=Sand+Serpents+2009+DVDRip+Xvid+BigPerm+LKRG&amp;tr=udp%3A%2F%2Ftracker.openbittorrent.com%3A80&amp;tr=udp%3A%2F%2Fopen.demonii.com%3A1337&amp;tr=udp%3A%2F%2Ftracker.coppersurfer.tk%3A6969&amp;tr=udp%3A%2F%2Fexodus.desync.com%3A6969","seeders":0,"leechers":1,"uploader":".BONE.","files":78,"time":1305578936,"description":"\nPLOT\n\nJason Gedrick and a small group of Marines are stranded in the remote Afghan\ndesert. But it ain't the Taliban that's worrying them...\n &lt;a href=&quot;\nhttp://www.imdb.com/title/tt1319736/&quot; rel=&quot;nofollow&quot; target=&quot;_NEW&quot;&gt;\nhttp://www.imdb.com/title/tt1319736/&lt;/a&gt;\n\nEncoded By .......: BigPerm1828\nRuntime ..........: 1h 28mn\nFile Size ........: 1.07 GB\nResolution .......: 704x396\nIMDb URL .........: http://www.imdb.com/title/tt1319736/\nLanguage .........: English\nVideo\nID : 0\nFormat : MPEG-4 Visual\nFormat profile : Advanced Simple@L5\nFormat settings, BVOP : Yes\nFormat settings, QPel : No\nFormat settings, GMC : No warppoints\nFormat settings, Matrix : Default (H.263)\nCodec ID : XVID\nCodec ID/Hint : XviD\nDuration : 1h 28mn\nBit rate : 1 289 Kbps\nWidth : 704 pixels\nHeight : 396 pixels\nDisplay aspect ratio : 16:9\nFrame rate : 23.976 fps\nColor space : YUV\nChroma subsampling : 4:2:0\nBit depth : 8 bits\nScan type : Progressive\nCompression mode : Lossy\nBits/(Pixel*Frame) : 0.193\nStream size : 814 MiB (74%)\nWriting library : XviD 1.2.1 (UTC 2008-12-04)\n\nAudio\nID : 1\nFormat : AC-3\nFormat/Info : Audio Coding 3\nMode extension : CM (complete main)\nCodec ID : 2000\nDuration : 1h 28mn\nBit rate mode : Constant\nBit rate : 448 Kbps\nChannel(s) : 6 channels\nChannel positions : Front: L C R, Side: L R, LFE\nSampling rate : 48.0 KHz\nBit depth : 16 bits\nCompression mode : Lossy\nVideo delay : 42ms\nStream size : 283 MiB (26%)\nAlignment : Split accross interleaves\nInterleave, duration : 500 ms (11.99 video frames)\nInterleave, preload duration : 500 ms\n &lt;a href=&quot;\nhttp://leetleech.org/images/34896469516773617416.png&quot; rel=&quot;nofollow&quot; target=&quot;_NEW&quot;&gt;\nhttp://leetleech.org/images/34896469516773617416.png&lt;/a&gt;\n &lt;a href=&quot;\nhttp://leetleech.org/images/42379973811244804486.png&quot; rel=&quot;nofollow&quot; target=&quot;_NEW&quot;&gt;\nhttp://leetleech.org/images/42379973811244804486.png&lt;/a&gt;\n &lt;a href=&quot;\nhttp://leetleech.org/images/55945935740746366516.png&quot; rel=&quot;nofollow&quot; target=&quot;_NEW&quot;&gt;\nhttp://leetleech.org/images/55945935740746366516.png&lt;/a&gt;\n &lt;a href=&quot;\nhttp://leetleech.org/images/70573884191505518267.png&quot; rel=&quot;nofollow&quot; target=&quot;_NEW&quot;&gt;\nhttp://leetleech.org/images/70573884191505518267.png&lt;/a&gt;","torrent":{"xt":"urn:btih:b74e5bdb1420cdbd20a335f833071bbd60d4596e","amp;dn":"Sand+Serpents+2009+DVDRip+Xvid+BigPerm+LKRG","amp;tr":["udp%3A%2F%2Ftracker.openbittorrent.com%3A80","udp%3A%2F%2Fopen.demonii.com%3A1337","udp%3A%2F%2Ftracker.coppersurfer.tk%3A6969","udp%3A%2F%2Fexodus.desync.com%3A6969"],"infoHash":"b74e5bdb1420cdbd20a335f833071bbd60d4596e","infoHashBuffer":{"type":"Buffer","data":[183,78,91,219,20,32,205,189,32,163,53,248,51,7,27,189,96,212,89,110]},"announce":[],"urlList":[]}}